<svg xmlns="http://www.w3.org/2000/svg" width="28.776" height="19.959" viewBox="0 0 28.776 19.959"><defs><style>.a{stroke:#000;stroke-width:0.5px;}</style></defs><g transform="translate(0.25 0.25)"><path class="a" d="M382.913,122.022h-.826V107.228a1.67,1.67,0,0,0-1.668-1.668H357.9a1.67,1.67,0,0,0-1.668,1.668v14.793h-.826a.385.385,0,0,0-.385.385v.944a1.67,1.67,0,0,0,1.668,1.668h24.94a1.67,1.67,0,0,0,1.668-1.668v-.944A.385.385,0,0,0,382.913,122.022ZM357,107.228a.9.9,0,0,1,.9-.9h22.518a.9.9,0,0,1,.9.9v14.793H357Zm14.328,15.563a.95.95,0,0,1-.463.122h-3.415a.949.949,0,0,1-.463-.122Zm11.2.559a.9.9,0,0,1-.9.9H356.69a.9.9,0,0,1-.9-.9v-.559h10.156c.006.011.009.022.015.033a1.726,1.726,0,0,0,1.489.859h3.415a1.726,1.726,0,0,0,1.49-.86c.006-.01.009-.022.015-.032h10.156Z" transform="translate(-355.022 -105.56)"/><path class="a" d="M389.056,115.428H368.028a.385.385,0,0,0-.385.385v12.439a.385.385,0,0,0,.385.385h21.028a.385.385,0,0,0,.385-.385V115.813A.385.385,0,0,0,389.056,115.428Zm-.385,12.439H368.413V116.2h20.258Z" transform="translate(-364.404 -112.895)"/><circle class="a" cx="0.445" cy="0.445" r="0.445" transform="translate(13.693 1.206)"/></g></svg>