<svg xmlns="http://www.w3.org/2000/svg" width="26.01" height="32.666" viewBox="0 0 26.01 32.666"><defs><style>.a{stroke:#000;stroke-width:0.5px;}</style></defs><g transform="translate(0.259 0.25)"><path class="a" d="M961.881,116.21a.74.74,0,0,0-.858,0,10.49,10.49,0,0,1-16.185-11.43.741.741,0,0,0-1.144-.807,11.974,11.974,0,1,0,18.473,13.043A.741.741,0,0,0,961.881,116.21Zm-11.224,8A10.488,10.488,0,0,1,943,106.546q-.054.564-.054,1.132a11.978,11.978,0,0,0,17.027,10.858A10.549,10.549,0,0,1,950.657,124.209Z" transform="translate(-936.704 -93.524)"/><path class="a" d="M990.411,108.782a.741.741,0,0,0-.411,1.264l1.444,1.407-.341,1.987a.741.741,0,0,0,1.075.781l1.785-.938,1.784.938a.741.741,0,0,0,1.075-.781l-.34-1.987,1.443-1.407a.741.741,0,0,0-.411-1.264l-1.995-.29-.892-1.807a.741.741,0,0,0-1.329,0l-.892,1.807Zm3.151.715.4-.811.4.811a.741.741,0,0,0,.558.405l.895.13-.648.631a.742.742,0,0,0-.213.656l.153.891-.8-.421a.74.74,0,0,0-.689,0l-.8.421.153-.891a.741.741,0,0,0-.213-.656l-.647-.631.894-.13A.74.74,0,0,0,993.562,109.5Z" transform="translate(-972.657 -95.237)"/><path class="a" d="M972.649,80.836l-.341,1.986a.741.741,0,0,0,1.075.781l1.784-.938,1.784.938a.741.741,0,0,0,1.075-.781l-.341-1.986,1.444-1.407a.741.741,0,0,0-.411-1.264l-1.995-.29-.892-1.807a.741.741,0,0,0-1.329,0l-.892,1.807-2,.29a.741.741,0,0,0-.41,1.264Zm1.56-1.55a.741.741,0,0,0,.558-.405l.4-.811.4.811a.742.742,0,0,0,.558.405l.895.13-.648.631a.742.742,0,0,0-.213.656l.153.891-.8-.421a.741.741,0,0,0-.689,0l-.8.421.153-.891a.741.741,0,0,0-.213-.656l-.647-.631Z" transform="translate(-959.432 -73.693)"/><path class="a" d="M934.41,76.985l1.784-.938,1.784.938a.741.741,0,0,0,1.075-.781l-.341-1.986,1.444-1.407a.741.741,0,0,0-.411-1.264l-1.995-.29-.892-1.807a.741.741,0,0,0-1.329,0l-.892,1.807-1.994.29a.741.741,0,0,0-.411,1.264l1.443,1.407-.341,1.987a.741.741,0,0,0,1.075.781Zm.826-4.318a.741.741,0,0,0,.558-.405l.4-.811.4.811a.741.741,0,0,0,.558.405l.895.13-.648.631a.741.741,0,0,0-.213.656l.153.891-.8-.421a.74.74,0,0,0-.689,0l-.8.421.153-.891a.74.74,0,0,0-.213-.656l-.648-.631Z" transform="translate(-932.008 -69.036)"/></g></svg>