<svg xmlns="http://www.w3.org/2000/svg" xmlns:xlink="http://www.w3.org/1999/xlink" width="247" height="860.211" viewBox="0 0 247 860.211"><defs><style>.a{fill:none;}.b,.d{isolation:isolate;}.b{clip-path:url(#a);}.c,.e{fill:#455158;}.c{stroke:#5b7584;stroke-width:8px;}.d{clip-path:url(#b);}.f{fill:#b8c4c9;}.g,.h{stroke:none;}.h{fill:#5b7584;}</style><clipPath id="a"><rect class="a" y="-13" width="247" height="798"/></clipPath><clipPath id="b"><rect class="a" y="-7" width="247" height="159"/></clipPath></defs><g class="b" transform="translate(0 75.211)"><g class="c"><rect class="g" width="247" height="785" rx="87"/><rect class="a" x="4" y="4" width="239" height="777" rx="83"/></g></g><g class="d" transform="translate(0 7)"><g class="e" transform="translate(-788.767 -65)"><path class="g" d="M 948.6685791015625 913 L 875.819580078125 913 C 870.1982421875 913 864.5816040039063 912.4328002929688 859.125732421875 911.3140258789063 C 853.8104858398438 910.22412109375 848.5821533203125 908.5977783203125 843.586181640625 906.4803466796875 C 838.6796875 904.4008178710938 833.9471435546875 901.82666015625 829.5199584960938 898.8294677734375 C 825.1336059570313 895.8599853515625 821.0086059570313 892.4495849609375 817.2598266601563 888.6929321289063 C 813.5107421875 884.9361572265625 810.107177734375 880.8023681640625 807.1436157226563 876.4065551757813 C 804.1521606445313 871.9695434570313 801.5829467773438 867.2263793945313 799.5073852539063 862.3090209960938 C 797.3937377929688 857.3013305664063 795.7703857421875 852.06103515625 794.6824951171875 846.7333374023438 C 793.5657348632813 841.2645874023438 792.99951171875 835.6347045898438 792.99951171875 830 L 792.99951171875 219.0000152587891 C 792.99951171875 212.2719116210938 793.8048095703125 205.5799102783203 795.3932495117188 199.1099090576172 C 796.9353637695313 192.828125 799.2224731445313 186.7232360839844 802.19091796875 180.9647979736328 L 803.6314697265625 178.1704559326172 L 801.256591796875 176.1103515625 C 799.2697143554688 174.3869018554688 797.6202392578125 172.0890197753906 796.3541870117188 169.2804565429688 C 795.6578979492188 167.7359619140625 795.0762329101563 166.0383453369141 794.6154174804688 164.2092437744141 C 794.6881103515625 164.2900238037109 794.7320556640625 164.3383026123047 794.745849609375 164.3533477783203 L 805.1793823242188 175.7786865234375 L 801.5903930664063 160.7282409667969 C 801.5484008789063 160.5516815185547 797.3492431640625 142.829345703125 794.7722778320313 123.0662384033203 C 793.2716064453125 111.5567932128906 792.6074829101563 101.6317901611328 792.798583984375 93.5670166015625 C 793.0806274414063 81.66812896728516 795.1882934570313 76.14534759521484 796.90673828125 73.60768127441406 C 798.3982543945313 71.40501403808594 799.9066162109375 70.95334625244141 800.911376953125 70.80523681640625 C 801.516845703125 70.71601867675781 802.1198120117188 70.67268371582031 802.7548217773438 70.67268371582031 C 807.3269653320313 70.67268371582031 812.7022705078125 72.99490356445313 818.7313842773438 77.57490539550781 C 823.8823852539063 81.48790740966797 829.4172973632813 86.98857116699219 835.1820678710938 93.92424011230469 C 845.1233520507813 105.8842391967773 852.2708129882813 117.9703521728516 852.341796875 118.0910186767578 L 856.8947143554688 125.8260192871094 L 859.6026000976563 117.2687911987305 C 859.7672729492188 116.7485275268555 859.9520874023438 116.2249145507813 860.1509399414063 115.7043380737305 C 860.9496459960938 120.2865524291992 861.3598022460938 126.0210571289063 861.3382568359375 132.6200103759766 L 861.323486328125 137.1467895507813 L 865.8178100585938 136.6041259765625 C 869.1378173828125 136.2032318115234 872.5029296875 136.0000152587891 875.819580078125 136.0000152587891 L 948.6685791015625 136.0000152587891 C 951.9996948242188 136.0000152587891 955.3839111328125 136.20556640625 958.7273559570313 136.6109008789063 L 963.2718505859375 137.1619110107422 L 963.20849609375 132.5845642089844 C 963.1072387695313 125.2767028808594 963.5128784179688 118.9765243530273 964.3780517578125 114.0221710205078 C 964.5786743164063 114.5461502075195 964.7650756835938 115.0733489990234 964.9303588867188 115.5957946777344 L 967.6382446289063 124.1533508300781 L 972.1912841796875 116.4180145263672 C 972.2623901367188 116.2972412109375 979.4610595703125 104.1346817016602 989.4140625 92.17501831054688 C 995.1697998046875 85.25879669189453 1000.695495605469 79.77457427978516 1005.837585449219 75.87445831298828 C 1011.852172851563 71.31268310546875 1017.215393066406 68.99967956542969 1021.778381347656 68.99967956542969 C 1022.404602050781 68.99967956542969 1023.024841308594 69.04423522949219 1023.621948242188 69.13224029541016 C 1024.626708984375 69.28034973144531 1026.135131835938 69.73212432861328 1027.626831054688 71.93512725830078 C 1029.346923828125 74.47579193115234 1031.4560546875 80.00590515136719 1031.735229492188 91.92368316650391 C 1031.924438476563 99.99835205078125 1031.25732421875 109.9347915649414 1029.752563476563 121.4572372436523 C 1027.172241210938 141.2152404785156 1022.984802246094 158.8791198730469 1022.942810058594 159.0552368164063 L 1019.353820800781 174.1056823730469 L 1029.787353515625 162.6803436279297 C 1029.80078125 162.6657409667969 1029.842529296875 162.619873046875 1029.911499023438 162.5432891845703 C 1029.395141601563 164.5879669189453 1028.728149414063 166.4666290283203 1027.919311523438 168.1509094238281 C 1026.57958984375 170.9405670166016 1024.843139648438 173.1974639892578 1022.758239746094 174.8586883544922 L 1020.153076171875 176.9344635009766 L 1021.72314453125 179.8723449707031 C 1024.873046875 185.7665710449219 1027.3017578125 192.0331268310547 1028.941650390625 198.4979095458984 C 1030.6318359375 205.1610107421875 1031.48876953125 212.0588989257813 1031.48876953125 219.0000152587891 L 1031.48876953125 830 C 1031.48876953125 835.6347045898438 1030.922607421875 841.2645874023438 1029.805786132813 846.7333374023438 C 1028.717895507813 852.06103515625 1027.094604492188 857.3013305664063 1024.98095703125 862.3090209960938 C 1022.9052734375 867.2263793945313 1020.336181640625 871.9695434570313 1017.3447265625 876.4065551757813 C 1014.381164550781 880.8023681640625 1010.977478027344 884.9361572265625 1007.228515625 888.6929321289063 C 1003.479614257813 892.4495849609375 999.354736328125 895.8599853515625 994.96826171875 898.8294677734375 C 990.541015625 901.82666015625 985.8084716796875 904.4008178710938 980.9020385742188 906.4803466796875 C 975.9060668945313 908.5977783203125 970.677734375 910.22412109375 965.3624877929688 911.3140258789063 C 959.9066162109375 912.4328002929688 954.2899169921875 913 948.6685791015625 913 Z"/><path class="h" d="M 1021.778564453125 72.9996337890625 C 1008.4365234375 72.9996337890625 986.764404296875 99.577392578125 975.6369018554688 118.4495849609375 L 967.2108764648438 132.7402954101563 L 967.3347778320313 141.68359375 L 958.2459716796875 140.5818481445313 C 955.1058349609375 140.2011108398438 951.9112548828125 139.9999389648438 948.6686401367188 139.9999389648438 L 875.819580078125 139.9999389648438 C 872.5965576171875 139.9999389648438 869.4198608398438 140.1981811523438 866.2974853515625 140.5753784179688 L 857.3088989257813 141.6607666015625 L 857.332275390625 134.4548950195313 L 848.8946533203125 120.1199340820313 C 837.7869873046875 101.248779296875 816.12841796875 74.67254638671875 802.754638671875 74.67254638671875 C 802.3306884765625 74.67254638671875 801.9119262695313 74.700927734375 801.49462890625 74.762451171875 C 801.2853393554688 74.79327392578125 800.8956909179688 74.85064697265625 800.2188720703125 75.85009765625 C 792.7001953125 86.95196533203125 798.7698974609375 131.62548828125 805.4815063476563 159.80126953125 L 812.6200561523438 189.79345703125 L 805.9144287109375 182.4713745117188 L 805.7462768554688 182.797607421875 C 799.9422607421875 194.0563354492188 796.99951171875 206.236572265625 796.99951171875 218.9999389648438 L 796.99951171875 829.9999389648438 C 796.99951171875 873.5606689453125 832.3580932617188 908.9999389648438 875.819580078125 908.9999389648438 L 948.6686401367188 908.9999389648438 C 992.1301879882813 908.9999389648438 1027.48876953125 873.5606689453125 1027.48876953125 829.9999389648438 L 1027.48876953125 218.9999389648438 C 1027.48876953125 206.0125732421875 1024.275146484375 193.1343383789063 1018.195373535156 181.7576293945313 L 1018.027526855469 181.443603515625 L 1011.905822753906 188.1279296875 L 1019.051696777344 158.1282958984375 C 1025.76318359375 129.9524536132813 1031.832885742188 85.27886962890625 1024.314208984375 74.177001953125 C 1023.637390136719 73.177734375 1023.247863769531 73.12030029296875 1023.038452148438 73.0894775390625 C 1022.6220703125 73.028076171875 1022.201721191406 72.9996337890625 1021.778564453125 72.9996337890625 M 1021.778503417969 64.9996337890625 C 1022.59375 64.9996337890625 1023.403198242188 65.05682373046875 1024.205322265625 65.17498779296875 C 1048.58447265625 68.76904296875 1026.833740234375 159.9830322265625 1026.833740234375 159.9830322265625 C 1026.833740234375 159.9830322265625 1030.210693359375 156.2850341796875 1035.100341796875 149.8569946289063 C 1035.100341796875 149.8569946289063 1036.591552734375 168.9509887695313 1025.2509765625 177.9869995117188 C 1031.781494140625 190.20703125 1035.48876953125 204.1690063476563 1035.48876953125 218.9999389648438 L 1035.48876953125 829.9999389648438 C 1035.48876953125 878.0490112304688 996.6182861328125 916.9999389648438 948.6686401367188 916.9999389648438 L 875.819580078125 916.9999389648438 C 827.8699340820313 916.9999389648438 788.99951171875 878.0490112304688 788.99951171875 829.9999389648438 L 788.99951171875 218.9999389648438 C 788.99951171875 204.6299438476563 792.478271484375 191.075927734375 798.635498046875 179.1319580078125 C 787.99267578125 169.8999633789063 789.4326171875 151.5299682617188 789.4326171875 151.5299682617188 C 794.322509765625 157.9579467773438 797.699462890625 161.6559448242188 797.699462890625 161.6559448242188 C 797.699462890625 161.6559448242188 775.9483642578125 70.44195556640625 800.3280029296875 66.84796142578125 C 801.1314697265625 66.72955322265625 801.9379272460938 66.672607421875 802.754638671875 66.672607421875 C 826.7182006835938 66.672607421875 855.7890014648438 116.0619506835938 855.7890014648438 116.0619506835938 C 857.4846801757813 110.7039794921875 861.0272216796875 105.1610107421875 861.0272216796875 105.1610107421875 C 864.641845703125 111.8019409179688 865.3672485351563 123.741943359375 865.3383178710938 132.6329956054688 C 868.7752685546875 132.2179565429688 872.27197265625 131.9999389648438 875.819580078125 131.9999389648438 L 948.6686401367188 131.9999389648438 C 952.2372436523438 131.9999389648438 955.7529907226563 132.2210083007813 959.2088012695313 132.6399536132813 C 959.0840454101563 123.6319580078125 959.6588745117188 110.5570068359375 963.505859375 103.4879760742188 C 963.505859375 103.4879760742188 967.0485229492188 109.031005859375 968.7440795898438 114.3890380859375 C 968.7440795898438 114.3890380859375 997.8140258789063 64.9996337890625 1021.778503417969 64.9996337890625 Z"/></g></g><g transform="translate(-759.582 -50.878)"><path class="f" d="M966.588,123.442s21.279-40.031,32.128-39.283.364,46.391-2.811,51.629S966.588,123.442,966.588,123.442Z" transform="translate(-18.652 13.593)"/><path class="f" d="M837.352,123.612s-20.465-38.5-30.9-37.781-.349,44.618,2.7,49.655S837.352,123.612,837.352,123.612Z" transform="translate(-22 13.932)"/></g></svg>