<svg xmlns="http://www.w3.org/2000/svg" xmlns:xlink="http://www.w3.org/1999/xlink" width="246" height="92.513" viewBox="0 0 246 92.513"><defs><style>.a{fill:none;}.b{isolation:isolate;clip-path:url(#a);}.c{fill:#b4603b;}.d{fill:#e9ca8c;}.e,.f{stroke:none;}.f{fill:#a55430;}</style><clipPath id="a"><rect class="a" width="246" height="92.513"/></clipPath></defs><g class="b"><g class="c" transform="translate(-443 -117.6)"><path class="e" d="M 682.2349853515625 222.1133575439453 L 449.7656860351563 222.1133575439453 C 451.3125915527344 216.2899627685547 453.5093078613281 210.6234741210938 456.3211059570313 205.2122497558594 L 457.4435424804688 203.0521392822266 L 456.0406494140625 201.0627136230469 C 450.126220703125 192.6754913330078 447 182.8125 447 172.5399932861328 C 447 165.845703125 448.3101501464844 159.3538513183594 450.8940124511719 153.2447814941406 C 453.3905639648438 147.3420715332031 456.9655151367188 142.0401000976563 461.5194702148438 137.4861450195313 C 466.0734252929688 132.9321746826172 471.3754272460938 129.3572387695313 477.2781066894531 126.8606719970703 C 483.38720703125 124.2768173217773 489.8790588378906 122.9666748046875 496.5733642578125 122.9666748046875 C 502.0019226074219 122.9666748046875 507.3360290527344 123.8376007080078 512.427490234375 125.5553207397461 C 517.3504028320313 127.2161712646484 521.9685668945313 129.6393585205078 526.1536865234375 132.757568359375 C 530.2930908203125 135.8416748046875 533.9144287109375 139.5339660644531 536.9170532226563 143.7318572998047 C 539.9570922851563 147.9820251464844 542.2919921875 152.6534271240234 543.8568115234375 157.6162109375 L 544.73876953125 160.4133453369141 L 547.671630859375 160.4133453369141 L 583.9293212890625 160.4133453369141 L 586.9453735351563 160.4133453369141 L 587.7750244140625 157.513671875 C 589.239501953125 152.3952789306641 591.5150146484375 147.5656433105469 594.5382690429688 143.1589202880859 C 597.5194702148438 138.8134918212891 601.1534423828125 134.9851379394531 605.3391723632813 131.7801361083984 C 609.568115234375 128.5420379638672 614.2532958984375 126.0236740112305 619.2645263671875 124.2949981689453 C 624.4486083984375 122.5067443847656 629.8862915039063 121.5999984741211 635.4266357421875 121.5999984741211 C 642.1209106445313 121.5999984741211 648.61279296875 122.9101409912109 654.7218627929688 125.4939956665039 C 660.6246337890625 127.9905700683594 665.9265747070313 131.5654907226563 670.4805297851563 136.1194610595703 C 675.0344848632813 140.6734313964844 678.6094360351563 145.9753875732422 681.1060180664063 151.8780975341797 C 683.6898803710938 157.9872131347656 685 164.4790649414063 685 171.1733551025391 C 685 176.4863891601563 684.1624755859375 181.7142028808594 682.5106201171875 186.7115631103516 C 680.9143676757813 191.5406799316406 678.5821533203125 196.0893096923828 675.5787353515625 200.2311401367188 L 674.1116943359375 202.2542877197266 L 675.28662109375 204.4599304199219 C 678.2869262695313 210.0921783447266 680.6156616210938 216.0118103027344 682.2349853515625 222.1133575439453 Z"/><path class="f" d="M 635.4266357421875 125.6000213623047 C 615.196044921875 125.6000213623047 597.182373046875 139.1758728027344 591.6206665039063 158.614013671875 L 589.9613647460938 164.413330078125 L 583.9293212890625 164.413330078125 L 547.671630859375 164.413330078125 L 541.8057861328125 164.413330078125 L 540.0418701171875 158.8190155029297 C 534.0347290039063 139.7671356201172 516.5661010742188 126.9666748046875 496.5733642578125 126.9666748046875 C 471.444091796875 126.9666748046875 451 147.4107971191406 451 172.5400238037109 C 451 181.9826354980469 453.8734130859375 191.0485229492188 459.3095703125 198.7575531005859 L 462.1153564453125 202.7363739013672 L 459.8704833984375 207.0565643310547 C 458.010498046875 210.6362152099609 456.43359375 214.3318634033203 455.1505126953125 218.1133270263672 L 676.8515625 218.1133270263672 C 675.4829711914063 214.0762329101563 673.7802734375 210.1399383544922 671.75634765625 206.3405609130859 L 669.4063720703125 201.9292449951172 L 672.340576171875 197.8829803466797 C 678.005615234375 190.0706329345703 681 180.8345947265625 681 171.1733245849609 C 681 146.0441284179688 660.5558471679688 125.6000213623047 635.4266357421875 125.6000213623047 M 635.4266357421875 117.6000213623047 C 665.0150146484375 117.6000213623047 689 141.5849761962891 689 171.1733245849609 C 689 182.9075622558594 685.217041015625 193.7534027099609 678.8169555664063 202.5793304443359 C 682.7009887695313 209.8705139160156 685.5914916992188 217.7712097167969 687.2738037109375 226.1133270263672 L 444.72607421875 226.1133270263672 C 446.3483276367188 218.0705261230469 449.0966796875 210.4403991699219 452.7716674804688 203.3679046630859 C 446.623046875 194.6485595703125 443 184.02001953125 443 172.5400238037109 C 443 142.9516754150391 466.9849853515625 118.9666748046875 496.5733642578125 118.9666748046875 C 520.54052734375 118.9666748046875 540.8273315429688 134.7065582275391 547.671630859375 156.413330078125 L 583.9293212890625 156.413330078125 C 590.34033203125 134.0068206787109 610.9606323242188 117.6000213623047 635.4266357421875 117.6000213623047 Z"/></g></g><g transform="translate(-431.132 -97.887)"><path class="d" d="M616.945,176.65a25.616,25.616,0,1,0-43.918-26.3A80.91,80.91,0,0,1,616.945,176.65Z" transform="translate(32.101)"/><path class="d" d="M459.218,176.738a25.616,25.616,0,1,1,43.918-26.3A80.923,80.923,0,0,0,459.218,176.738Z" transform="translate(0 0.024)"/></g></svg>