<svg xmlns="http://www.w3.org/2000/svg" width="23.663" height="27.969" viewBox="0 0 23.663 27.969"><defs><style>.a{fill:#8b6039;stroke:#8b6039;stroke-width:0.5px;}</style></defs><path class="a" d="M99.489,568.668c-2.246,0-4.073,1.548-4.073,3.452s1.827,3.452,4.073,3.452,4.073-1.548,4.073-3.452v-20.2a.663.663,0,0,0-.81-.646l-15.018,3.41a.663.663,0,0,0-.516.646v17.4a4.477,4.477,0,0,0-2.747-.911c-2.245,0-4.073,1.549-4.073,3.452s1.827,3.452,4.073,3.452,4.073-1.548,4.073-3.452V561.5l13.692-3.109v11.188A4.477,4.477,0,0,0,99.489,568.668Zm0,5.579c-1.515,0-2.747-.954-2.747-2.126s1.232-2.126,2.747-2.126,2.747.954,2.747,2.126S101,574.247,99.489,574.247ZM84.472,577.4c-1.514,0-2.747-.954-2.747-2.126s1.232-2.126,2.747-2.126,2.747.954,2.747,2.126S85.986,577.4,84.472,577.4Zm4.073-17.255v-4.284l13.692-3.109v4.284Z" transform="translate(-80.149 -551.002)"/></svg>