<svg xmlns="http://www.w3.org/2000/svg" xmlns:xlink="http://www.w3.org/1999/xlink" width="247.214" height="890.006" viewBox="0 0 247.214 890.006"><defs><style>.a{fill:none;}.b,.e{isolation:isolate;}.b{clip-path:url(#a);}.c,.f{fill:#9d8a83;stroke-width:8px;}.c{stroke:#746b67;}.d{fill:#746b67;}.e{clip-path:url(#b);}.f{stroke:#746a66;}.g,.h{stroke:none;}.h{fill:#746b67;}</style><clipPath id="a"><rect class="a" y="-31" width="247.214" height="144.476"/></clipPath><clipPath id="b"><rect class="a" y="41" width="247" height="764"/></clipPath></defs><g transform="translate(0.214)"><g transform="translate(3.786)"><g class="b" transform="translate(-4 31)"><path class="c" d="M1011.437,165.736a55.68,55.68,0,0,0,5.4-11.66c12.458-6.408,3.261-17.35,3.261-17.35,11.448-4.261,3.555-15,3.555-15,11.421-6.185-2.957-29.171-2.957-29.171S1002.1,138.043,965.508,133a10.083,10.083,0,0,0-4.5.138,83.251,83.251,0,0,0-17.048-1.755H927.011c2.833-7.192.726-15.228.154-11-.77,5.688-8.473,7.632-8.473,7.632s5.573-18.178,0-10.5c-3.593,4.948-14.532,9.974-24.958,13.869H873.258a83.313,83.313,0,0,0-16.7,1.685,9.546,9.546,0,0,0-4.676-.206c-36.594,5.042-55.186-40.446-55.186-40.446s-14.377,22.986-2.957,29.171c0,0-7.893,10.739,3.555,15,0,0-9.2,10.942,3.261,17.349a55.858,55.858,0,0,0,5.364,11.61A86.184,86.184,0,0,0,789,217.028v601.48c0,47.3,37.723,85.645,84.258,85.645h70.7c46.534,0,84.258-38.344,84.258-85.645V217.028A86.184,86.184,0,0,0,1011.437,165.736Z" transform="translate(-785 -74.677)"/></g><g transform="translate(-1633.786 -131.994)"><g class="d" transform="matrix(-0.914, -0.407, 0.407, -0.914, 1738.722, 249.471)"><path class="g" d="M 1.673057436943054 21.29745292663574 L 1.020787358283997 19.45638275146484 C 0.9792473912239075 19.33914375305176 -0.00319261709228158 16.54484367370605 -0.5852426290512085 13.05043315887451 C -1.388752579689026 8.226443290710449 -1.032512664794922 4.563102722167969 0.4735873937606812 2.162163019180298 C 1.60859739780426 0.3527829051017761 3.357067346572876 -0.6939770579338074 5.670437335968018 -0.9490470886230469 C 5.977177619934082 -0.9828670620918274 6.273017406463623 -1.000017046928406 6.549717426300049 -1.000017046928406 C 8.000157356262207 -1.000017046928406 9.07354736328125 -0.5362770557403564 9.740097045898438 0.3783329129219055 C 10.70409774780273 1.70110297203064 10.68957710266113 3.758042812347412 9.694376945495605 6.851633071899414 C 8.012107849121094 12.11503314971924 2.998007297515869 19.38501358032227 2.785377264022827 19.69192314147949 L 1.673057436943054 21.29745292663574 Z"/><path class="h" d="M 1.963377356529236 19.12243270874023 C 1.963377356529236 19.12243270874023 7.085697174072266 11.72885322570801 8.742427825927734 6.545392990112305 C 9.959617614746094 2.761717081069946 9.826537132263184 -1.973876896954607e-05 6.549716472625732 -1.973876896954607e-05 C 6.310200691223145 -1.973876896954607e-05 6.053835868835449 0.01474015880376101 5.780027389526367 0.04493291676044464 C -4.397952556610107 1.167132973670959 1.963377356529236 19.12243270874023 1.963377356529236 19.12243270874023 M 1.382727384567261 23.47247314453125 L 0.07819738239049911 19.79033279418945 C 0.03545738384127617 19.66970252990723 -0.9753125905990601 16.79491233825684 -1.57165265083313 13.2147331237793 C -2.41652250289917 8.142402648925781 -2.013422727584839 4.244992733001709 -0.3735426068305969 1.630762934684753 C 0.9135773777961731 -0.4210870862007141 2.965647459030151 -1.656877040863037 5.560837268829346 -1.9430171251297 C 5.903857231140137 -1.980837106704712 6.236557483673096 -2.000017166137695 6.549717426300049 -2.000017166137695 C 8.776727676391602 -2.000017166137695 9.953347206115723 -1.026947140693665 10.54824733734131 -0.2106370776891708 C 12.08326721191406 1.895662903785706 11.33939743041992 5.003462791442871 10.64633750915527 7.157873153686523 C 8.919677734375 12.5601224899292 3.823477268218994 19.94949340820313 3.607377290725708 20.26140213012695 L 1.382727384567261 23.47247314453125 Z"/></g><g class="d" transform="matrix(0.914, -0.407, 0.407, 0.914, 1762.712, 233.002)"><path class="g" d="M 6.549831390380859 20.12245750427246 C 6.549743175506592 20.12245750427246 6.549826145172119 20.12245750427246 6.549737453460693 20.12245750427246 C 6.273017883300781 20.12245750427246 5.977177619934082 20.10530662536621 5.670437812805176 20.07147789001465 C 3.3570876121521 19.81642723083496 1.608617663383484 18.76966667175293 0.4736076593399048 16.96029663085938 C -1.032492399215698 14.55935764312744 -1.388732314109802 10.8960075378418 -0.5852223634719849 6.072007656097412 C -0.003172351513057947 2.577587366104126 0.9792676568031311 -0.2167125791311264 1.02080762386322 -0.3339525759220123 L 1.673077702522278 -2.175022602081299 L 2.785397529602051 -0.5694925785064697 C 2.998027563095093 -0.2625825703144073 8.012127876281738 7.007407188415527 9.694987297058105 12.2725772857666 C 10.68960762023926 15.36441707611084 10.70412731170654 17.42137718200684 9.740107536315918 18.74414825439453 C 9.07359790802002 19.65869140625 8.000126838684082 20.12245750427246 6.549831390380859 20.12245750427246 Z"/><path class="h" d="M 1.963397741317749 -1.9073486328125e-06 C 1.963397741317749 -1.9073486328125e-06 -4.397932529449463 17.9553279876709 5.780047416687012 19.07750701904297 C 6.053855895996094 19.10770034790039 6.310233116149902 19.12246131896973 6.54974889755249 19.12246131896973 C 9.826569557189941 19.12246131896973 9.959638595581055 16.36072158813477 8.742457389831543 12.57702732086182 C 7.085717678070068 7.393587112426758 1.963397741317749 -1.9073486328125e-06 1.963397741317749 -1.9073486328125e-06 M 1.382747650146484 -4.350051879882813 L 3.607397556304932 -1.138973236083984 C 3.823497772216797 -0.8270626068115234 8.919697761535645 6.562307357788086 10.64751815795898 11.96812725067139 C 11.33942794799805 14.11897754669189 12.08329772949219 17.22678756713867 10.54826736450195 19.33307647705078 C 9.953367233276367 20.14938735961914 8.776747703552246 21.12245750427246 6.549747467041016 21.12245750427246 C 6.236587524414063 21.12245750427246 5.903877735137939 21.1032772064209 5.560857772827148 21.06545829772949 C 2.965677738189697 20.77932739257813 0.913597583770752 19.54353713989258 -0.3735122680664063 17.4916877746582 C -2.013402462005615 14.87746810913086 -2.416502475738525 10.98005771636963 -1.571632385253906 5.907707214355469 C -0.9752922058105469 2.32752799987793 0.03547763824462891 -0.547271728515625 0.07821750640869141 -0.6678924560546875 L 1.382747650146484 -4.350051879882813 Z"/></g><g class="d" transform="matrix(-0.996, 0.087, -0.087, -0.996, 1759.632, 257.619)"><path class="g" d="M 2.563719749450684 27.72410202026367 L 1.780889630317688 26.3283519744873 C 1.69439971446991 26.17413139343262 -0.356400340795517 22.49869155883789 -2.004200220108032 17.9148120880127 C -4.276340484619141 11.59411239624023 -4.622960567474365 6.822741985321045 -3.034430265426636 3.733232021331787 C -1.89387035369873 1.514982104301453 0.1884196698665619 0.2244120538234711 3.154609680175781 -0.1026379466056824 C 3.636829614639282 -0.1558079421520233 4.123159885406494 -0.1827779412269592 4.600059509277344 -0.1827779412269592 C 6.121169567108154 -0.1827779412269592 7.589279651641846 0.09301205724477768 8.84568977355957 0.6147720813751221 C 10.17799949645996 1.168052077293396 11.27550983428955 2.000162124633789 12.0195894241333 3.021152019500732 C 12.87963008880615 4.2012619972229 13.70710945129395 6.222621917724609 12.76519012451172 9.150702476501465 C 10.50772953033447 16.21407127380371 3.761169672012329 25.9957218170166 3.475079774856567 26.40866279602051 L 2.563719749450684 27.72410202026367 Z"/><path class="h" d="M 2.653079748153687 25.83917236328125 C 2.653079748153687 25.83917236328125 9.574709892272949 15.84859180450439 11.81322956085205 8.84447193145752 C 13.43184471130371 3.812825679779053 9.459563255310059 0.8172250390052795 4.600061416625977 0.8172250390052795 C 4.160875797271729 0.8172250390052795 3.71440601348877 0.8416959643363953 3.264199733734131 0.8913420438766479 C -10.48873043060303 2.407701969146729 2.653079748153687 25.83917236328125 2.653079748153687 25.83917236328125 M 2.474359750747681 29.60903167724609 L 0.9087096452713013 26.8175220489502 C 0.8205496668815613 26.66034126281738 -1.269610285758972 22.91439247131348 -2.945240259170532 18.25309181213379 C -5.314950466156006 11.66099166870117 -5.64417028427124 6.621962070465088 -3.923760414123535 3.275962114334106 C -3.290290355682373 2.043941974639893 -2.385040283203125 1.046602010726929 -1.233150362968445 0.3116520643234253 C -0.05565033107995987 -0.4396379292011261 1.383729696273804 -0.9134379625320435 3.045009613037109 -1.09660792350769 C 3.563449621200562 -1.153787970542908 4.08665943145752 -1.182778000831604 4.600059509277344 -1.182778000831604 C 6.251599788665771 -1.182778000831604 7.852339744567871 -0.8805479407310486 9.229209899902344 -0.3087579309940338 C 10.73114013671875 0.3149520456790924 11.97548961639404 1.262762069702148 12.82773971557617 2.43218207359314 C 13.52651977539063 3.39100193977356 13.95996952056885 4.478122234344482 14.11606979370117 5.663352012634277 C 14.27439975738525 6.865531921386719 14.14017963409424 8.141872406005859 13.71713924407959 9.456932067871094 C 11.41530990600586 16.6591625213623 4.586639881134033 26.56020164489746 4.297069549560547 26.97815132141113 L 2.474359750747681 29.60903167724609 Z"/></g></g></g><g class="e" transform="translate(0 85.006)"><g class="f"><rect class="g" width="247" height="785" rx="87"/><rect class="a" x="4" y="4" width="239" height="777" rx="83"/></g></g></g></svg>