<svg xmlns="http://www.w3.org/2000/svg" xmlns:xlink="http://www.w3.org/1999/xlink" width="247.03" height="154.432" viewBox="0 0 247.03 154.432"><defs><style>.a{fill:none;}.b{isolation:isolate;clip-path:url(#a);}.c,.e{fill:#f1c2c8;}.d{fill:#be7079;}.e{stroke:#cc8088;stroke-width:5px;}.f,.g{stroke:none;}.g{fill:#cf8c94;}</style><clipPath id="a"><rect class="a" y="-14" width="247.03" height="130.932"/></clipPath></defs><g class="b" transform="translate(0 14)"><g class="c" transform="translate(-789 -72.068)"><path class="f" d="M 948.9999389648438 913.0000610351563 L 875.9999389648438 913.0000610351563 C 870.3658447265625 913.0000610351563 864.7365112304688 912.4327392578125 859.268310546875 911.313720703125 C 853.9409790039063 910.2236328125 848.7009887695313 908.5970458984375 843.6937255859375 906.4791870117188 C 838.7764892578125 904.3993530273438 834.0335083007813 901.824951171875 829.5964965820313 898.827392578125 C 825.2007446289063 895.8576049804688 821.0669555664063 892.4469604492188 817.3099365234375 888.6900634765625 C 813.5531005859375 884.9330444335938 810.1423950195313 880.7992553710938 807.172607421875 876.4035034179688 C 804.175048828125 871.9664916992188 801.6006469726563 867.2235107421875 799.5208740234375 862.3062744140625 C 797.4029541015625 857.299072265625 795.7764282226563 852.0590209960938 794.686279296875 846.731689453125 C 793.5673217773438 841.2634887695313 792.9999389648438 835.6341552734375 792.9999389648438 830.0000610351563 L 792.9999389648438 219.0000457763672 C 792.9999389648438 211.6803894042969 793.9534301757813 204.4196014404297 795.8338623046875 197.4193878173828 C 797.6570434570313 190.6324920654297 800.3507690429688 184.0870513916016 803.8402099609375 177.9647216796875 L 805.1724243164063 175.6272735595703 L 803.509765625 173.5120544433594 C 799.74072265625 168.7172698974609 797.0240478515625 163.1900482177734 795.4351806640625 157.0837097167969 C 793.938720703125 151.3307189941406 793.0946044921875 143.5742645263672 793.0586547851563 135.2432708740234 C 793.020751953125 126.5072708129883 793.8379516601563 117.5682754516602 795.421875 109.3927154541016 C 797.1275024414063 100.588493347168 799.6890869140625 92.96582794189453 802.8297119140625 87.34893798828125 C 806.1239624023438 81.45716094970703 809.945068359375 77.83515930175781 814.1870727539063 76.58349609375 C 815.3453979492188 76.24171447753906 816.5756225585938 76.06838226318359 817.84375 76.06838226318359 C 819.9160766601563 76.06838226318359 822.16796875 76.52738189697266 824.53662109375 77.43271636962891 C 826.9091796875 78.33960723876953 829.420654296875 79.70116424560547 832.0014038085938 81.47960662841797 C 836.9249877929688 84.87271881103516 842.1911010742188 89.87294006347656 847.2305297851563 95.93972015380859 C 851.9473876953125 101.6181640625 856.4309692382813 108.1696014404297 860.1967163085938 114.8857192993164 C 863.8495483398438 121.4004974365234 866.6546020507813 127.7483825683594 868.3087158203125 133.2430572509766 L 869.2055053710938 136.22216796875 L 872.3136596679688 136.0862731933594 C 873.6401977539063 136.0282745361328 874.8460693359375 136.0000457763672 875.9999389648438 136.0000457763672 L 948.9999389648438 136.0000457763672 C 950.184326171875 136.0000457763672 951.4170532226563 136.0291595458984 952.7687377929688 136.0891571044922 L 955.8788452148438 136.22705078125 L 956.7761840820313 133.2459411621094 C 958.43017578125 127.7511596679688 961.2352905273438 121.4030532836914 964.88818359375 114.887939453125 C 968.6539916992188 108.1714935302734 973.1376342773438 101.6197128295898 977.8546142578125 95.94104766845703 C 982.894287109375 89.87382507324219 988.1607666015625 84.87338256835938 993.0845336914063 81.48004913330078 C 995.6654052734375 79.70149230957031 998.1771850585938 78.33982849121094 1000.549865722656 77.43293762207031 C 1002.918762207031 76.52749633789063 1005.170715332031 76.06838226318359 1007.243286132813 76.06838226318359 C 1008.511413574219 76.06838226318359 1009.741638183594 76.24171447753906 1010.899841308594 76.58349609375 C 1015.141845703125 77.83515930175781 1018.962951660156 81.45716094970703 1022.257202148438 87.34893798828125 C 1025.397827148438 92.96582794189453 1027.95947265625 100.588493347168 1029.665161132813 109.3927154541016 C 1031.2490234375 117.5682754516602 1032.066162109375 126.5072708129883 1032.028442382813 135.2432708740234 C 1031.992431640625 143.5742645263672 1031.148315429688 151.3307189941406 1029.651733398438 157.0840454101563 C 1028.054931640625 163.2197113037109 1025.322875976563 168.7672729492188 1021.53173828125 173.5723876953125 L 1019.863525390625 175.6867218017578 L 1021.195068359375 178.0277099609375 C 1024.673461914063 184.1427154541016 1027.3583984375 190.6791534423828 1029.175537109375 197.4552764892578 C 1031.049682617188 204.4442749023438 1032 211.6930541992188 1032 219.0000457763672 L 1032 830.0000610351563 C 1032 835.6341552734375 1031.4326171875 841.2634887695313 1030.313598632813 846.731689453125 C 1029.223510742188 852.0590209960938 1027.596923828125 857.299072265625 1025.479125976563 862.3062744140625 C 1023.399291992188 867.2235107421875 1020.824829101563 871.9664916992188 1017.827270507813 876.4035034179688 C 1014.857543945313 880.7992553710938 1011.446838378906 884.9330444335938 1007.68994140625 888.6900634765625 C 1003.932983398438 892.4469604492188 999.7991943359375 895.8576049804688 995.4033813476563 898.827392578125 C 990.9664306640625 901.824951171875 986.223388671875 904.3993530273438 981.3062133789063 906.4791870117188 C 976.2989501953125 908.5970458984375 971.0589599609375 910.2236328125 965.7316284179688 911.313720703125 C 960.263427734375 912.4327392578125 954.6340942382813 913.0000610351563 948.9999389648438 913.0000610351563 Z"/><path class="g" d="M 817.8438720703125 80.068359375 C 816.9466552734375 80.068359375 816.120849609375 80.18341064453125 815.319091796875 80.419921875 C 799.7310791015625 85.01959228515625 793.3492431640625 133.1758422851563 799.3062744140625 156.0763549804688 C 800.755615234375 161.646484375 803.2279663085938 166.6810302734375 806.654541015625 171.0401611328125 L 809.9798583984375 175.2706298828125 L 807.3153076171875 179.9454956054688 C 800.5670166015625 191.7855224609375 797 205.290283203125 797 218.9999389648438 L 797 829.9999389648438 C 797 873.5607299804688 832.439208984375 908.9999389648438 875.9999389648438 908.9999389648438 L 948.9999389648438 908.9999389648438 C 992.5607299804688 908.9999389648438 1028 873.5607299804688 1028 829.9999389648438 L 1028 218.9999389648438 C 1028 205.314697265625 1024.444580078125 191.8306274414063 1017.718200683594 180.00537109375 L 1015.054992675781 175.3232421875 L 1018.391540527344 171.0946044921875 C 1021.837768554688 166.7267456054688 1024.323974609375 161.6737060546875 1025.780639648438 156.0769653320313 C 1031.73779296875 133.1758422851563 1025.35595703125 85.01959228515625 1009.767639160156 80.419921875 C 1008.966491699219 80.1834716796875 1008.139526367188 80.0684814453125 1007.240539550781 80.068359375 C 991.9308471679688 80.068359375 967.595947265625 111.1784057617188 960.6063842773438 134.39892578125 L 958.8118286132813 140.3610229492188 L 952.5914916992188 140.0851440429688 C 951.4010620117188 140.0324096679688 950.2041625976563 139.9999389648438 948.9999389648438 139.9999389648438 L 875.9999389648438 139.9999389648438 C 874.8230590820313 139.9999389648438 873.6533813476563 140.0313720703125 872.4884033203125 140.082275390625 L 866.2720947265625 140.3540649414063 L 864.478515625 134.3959350585938 C 857.48876953125 111.1766967773438 833.1535034179688 80.068359375 817.8438720703125 80.068359375 M 817.8438720703125 72.068359375 C 839.0003662109375 72.068359375 865.1587524414063 108.9024047851563 872.1389770507813 132.0899658203125 C 873.4199829101563 132.033935546875 874.7059326171875 131.9999389648438 875.9999389648438 131.9999389648438 L 948.9999389648438 131.9999389648438 C 950.3229370117188 131.9999389648438 951.637939453125 132.0350341796875 952.9459838867188 132.0930786132813 C 959.9257202148438 108.9048461914063 986.0849609375 72.065185546875 1007.243286132813 72.06842041015625 C 1008.871887207031 72.06866455078125 1010.4736328125 72.28717041015625 1012.031982421875 72.7470703125 C 1034.44287109375 79.35992431640625 1039.951049804688 133.3790283203125 1033.52294921875 158.0909423828125 C 1031.743896484375 164.926025390625 1028.6650390625 170.9890747070313 1024.671875 176.0499267578125 C 1031.8798828125 188.721923828125 1036 203.3790283203125 1036 218.9999389648438 L 1036 829.9999389648438 C 1036 878.049072265625 997.0489501953125 916.9999389648438 948.9999389648438 916.9999389648438 L 875.9999389648438 916.9999389648438 C 827.9509887695313 916.9999389648438 789 878.049072265625 789 829.9999389648438 L 789 218.9999389648438 C 789 203.3519287109375 793.1339111328125 188.6710205078125 800.364990234375 175.9840698242188 C 796.39697265625 170.93603515625 793.3350830078125 164.8969116210938 791.5640869140625 158.0909423828125 C 785.135986328125 133.3790283203125 790.6439208984375 79.35992431640625 813.0549926757813 72.7470703125 C 814.614501953125 72.28680419921875 816.2138671875 72.068359375 817.8438720703125 72.068359375 Z"/></g></g><g transform="translate(-788.173 -47.097)"><path class="d" d="M1012.9,159.791a29.575,29.575,0,0,0,3.28-7.825c3.844-14.777,3.544-58.587-9.857-62.541C994.1,85.818,975.2,116.614,969.06,133.268A86.959,86.959,0,0,1,1012.9,159.791Z"/><path class="d" d="M810.471,160.791a29.606,29.606,0,0,1-3.279-7.825c-3.844-14.777-3.544-58.587,9.856-62.541,12.224-3.607,31.122,27.189,37.267,43.843A86.957,86.957,0,0,0,810.471,160.791Z"/></g><g transform="translate(-306.97 -127.8)"><ellipse class="e" cx="37" cy="25" rx="37" ry="25" transform="translate(393 229.732)"/><ellipse class="d" cx="11.5" cy="7" rx="11.5" ry="7" transform="translate(405 247.732)"/><ellipse class="d" cx="11.5" cy="7" rx="11.5" ry="7" transform="translate(434 247.732)"/></g></svg>