<svg xmlns="http://www.w3.org/2000/svg" xmlns:xlink="http://www.w3.org/1999/xlink" width="251.376" height="858.932" viewBox="0 0 251.376 858.932"><defs><style>.a{fill:none;}.b,.d{isolation:isolate;}.b{clip-path:url(#a);}.c,.e{fill:#8b6039;}.c{stroke:#6b4420;stroke-width:8px;}.d{clip-path:url(#b);}.f{fill:#ac9e95;}.g{fill:#6b4420;}.h,.i{stroke:none;}.i{fill:#6b4420;}</style><clipPath id="a"><rect class="a" y="51" width="247" height="734"/></clipPath><clipPath id="b"><rect class="a" x="4" y="-27" width="251.376" height="84.424"/></clipPath></defs><g class="b" transform="translate(0 73.932)"><g class="c"><rect class="h" width="247" height="785" rx="87"/><rect class="a" x="4" y="4" width="239" height="777" rx="83"/></g></g><g class="d" transform="translate(-4 69.508)"><g class="e" transform="translate(-785 -127.576)"><path class="h" d="M 949 913 L 876 913 C 870.3659057617188 913 864.7366333007813 912.4326171875 859.268310546875 911.313720703125 C 853.9411010742188 910.2236328125 848.7010498046875 908.5969848632813 843.69384765625 906.4791259765625 C 838.7765502929688 904.3992919921875 834.0336303710938 901.8248901367188 829.5966186523438 898.8273315429688 C 825.2007446289063 895.8576049804688 821.0670166015625 892.4468994140625 817.3101196289063 888.6898803710938 C 813.5531005859375 884.9329833984375 810.1423950195313 880.79931640625 807.1727294921875 876.4033813476563 C 804.1751098632813 871.9664306640625 801.6007080078125 867.2235107421875 799.5209350585938 862.3062133789063 C 797.4030151367188 857.2990112304688 795.7764282226563 852.0588989257813 794.6863403320313 846.731689453125 C 793.5674438476563 841.263427734375 793 835.6340942382813 793 830 L 793 219 C 793 202.3679962158203 797.8998413085938 186.3235015869141 807.1696166992188 172.6011047363281 L 809.55419921875 169.0711059570313 L 805.8812255859375 166.9132080078125 C 801.1541137695313 164.1359100341797 797.692138671875 161.3108978271484 795.5912475585938 158.5165100097656 C 794.5573120117188 157.1414031982422 793.8588256835938 155.7714996337891 793.5149536132813 154.4449005126953 C 793.1707153320313 153.1165008544922 793.1658325195313 151.8074035644531 793.5001220703125 150.4428100585938 C 794.0121459960938 148.3532104492188 795.3887329101563 146.3888092041016 797.5916137695313 144.6043090820313 C 799.8817138671875 142.7492980957031 802.9999389648438 141.1204986572266 806.859619140625 139.7633056640625 C 810.5657958984375 138.4600982666016 814.8273315429688 137.4513092041016 819.525634765625 136.7649078369141 C 823.9871215820313 136.1130981445313 828.6124267578125 135.7826080322266 833.2730102539063 135.7826080322266 C 840.0369262695313 135.7826080322266 846.3283081054688 136.5005035400391 850.9884033203125 137.8041076660156 C 851.6226196289063 137.9813079833984 852.2918090820313 138.1945953369141 853.0955200195313 138.4757080078125 L 854.2354125976563 138.8744049072266 L 855.4053955078125 138.5756988525391 C 862.1002197265625 136.8666076660156 869.029296875 136 876 136 L 949 136 C 957.0226440429688 136 964.967529296875 137.1484069824219 972.614013671875 139.4132995605469 L 973.9398193359375 139.8059997558594 L 975.2252197265625 139.2960052490234 C 976.37841796875 138.8385009765625 977.5276489257813 138.4486083984375 978.6409301757813 138.1370086669922 C 983.3001098632813 136.8339080810547 989.5910034179688 136.1161956787109 996.3543090820313 136.1161956787109 C 1001.014831542969 136.1161956787109 1005.640197753906 136.4467010498047 1010.10205078125 137.0984954833984 C 1014.800537109375 137.7848968505859 1019.062133789063 138.793701171875 1022.768615722656 140.0969085693359 C 1026.628662109375 141.4541015625 1029.7470703125 143.0828094482422 1032.037353515625 144.9378967285156 C 1034.240356445313 146.7221984863281 1035.616943359375 148.6865081787109 1036.12890625 150.7760009765625 C 1036.498779296875 152.285400390625 1036.453979492188 153.7359008789063 1035.991577148438 155.2105102539063 C 1035.524536132813 156.7004089355469 1034.614990234375 158.2398071289063 1033.288330078125 159.7859954833984 C 1030.648559570313 162.8626098632813 1026.405395507813 165.9472961425781 1020.676940917969 168.9542999267578 L 1016.834106445313 170.9714965820313 L 1019.157409667969 174.6372985839844 C 1023.275207519531 181.1343994140625 1026.461547851563 188.1566009521484 1028.628051757813 195.5086975097656 C 1030.865478515625 203.1020050048828 1032 211.0055999755859 1032 219 L 1032 830 C 1032 835.6340942382813 1031.4326171875 841.263427734375 1030.313720703125 846.731689453125 C 1029.2236328125 852.0588989257813 1027.597045898438 857.2990112304688 1025.479125976563 862.3062133789063 C 1023.399353027344 867.2235107421875 1020.824951171875 871.9664306640625 1017.827331542969 876.4033813476563 C 1014.857604980469 880.79931640625 1011.446899414063 884.9329833984375 1007.68994140625 888.6898803710938 C 1003.933044433594 892.4468994140625 999.79931640625 895.8576049804688 995.4034423828125 898.8273315429688 C 990.9664306640625 901.8248901367188 986.2235107421875 904.3992919921875 981.3062133789063 906.4791259765625 C 976.2990112304688 908.5969848632813 971.0588989257813 910.2236328125 965.7317504882813 911.313720703125 C 960.263427734375 912.4326171875 954.6341552734375 913 949 913 Z"/><path class="i" d="M 833.2728881835938 139.7825927734375 C 813.5076904296875 139.7825927734375 798.75927734375 145.786865234375 797.38525390625 151.39453125 C 796.2471923828125 156.0399169921875 804.36474609375 161.3828125 807.907470703125 163.4642944335938 L 815.2533569335938 167.7801513671875 L 810.4842529296875 174.8401489257813 C 801.662841796875 187.8987426757813 797 203.1689453125 797 218.9999389648438 L 797 829.9999389648438 C 797 873.5607299804688 832.4392700195313 908.9999389648438 876 908.9999389648438 L 949 908.9999389648438 C 992.560791015625 908.9999389648438 1028 873.5607299804688 1028 829.9999389648438 L 1028 218.9999389648438 C 1028 203.9935913085938 1023.774047851563 189.3936157226563 1015.77880859375 176.7785034179688 L 1011.132141113281 169.4468383789063 L 1018.817932128906 165.4124755859375 C 1023.287902832031 163.066162109375 1033.54443359375 157.03564453125 1032.243896484375 151.7278442382813 C 1030.869873046875 146.1203002929688 1016.1201171875 140.1162719726563 996.3529052734375 140.1161499023438 C 989.9444580078125 140.1161499023438 984.0366821289063 140.7813720703125 979.7181396484375 141.9892578125 C 978.6828002929688 142.2789306640625 977.6779174804688 142.6261596679688 976.7003784179688 143.0140380859375 L 974.1298217773438 144.033935546875 L 971.4781494140625 143.2485961914063 C 964.2002563476563 141.0929565429688 956.637451171875 139.9999389648438 949 139.9999389648438 L 876 139.9999389648438 C 869.3626708984375 139.9999389648438 862.7666015625 140.82470703125 856.3948974609375 142.451416015625 L 854.0546875 143.0487060546875 L 851.77490234375 142.2514038085938 C 851.163330078125 142.0374755859375 850.5460205078125 141.833740234375 849.9108276367188 141.6563110351563 C 845.591552734375 140.4480590820313 839.6828002929688 139.7825927734375 833.2728881835938 139.7825927734375 M 833.27294921875 131.7825927734375 C 840.3545532226563 131.7825927734375 847.0081787109375 132.537109375 852.0660400390625 133.9520874023438 C 852.864013671875 134.1749267578125 853.64404296875 134.429931640625 854.416015625 134.699951171875 C 861.3180541992188 132.9379272460938 868.5490112304688 131.9999389648438 876 131.9999389648438 L 949 131.9999389648438 C 957.5989990234375 131.9999389648438 965.904052734375 133.2540283203125 973.75 135.5779418945313 C 974.9850463867188 135.0879516601563 976.2550048828125 134.6509399414063 977.5630493164063 134.2850341796875 C 982.6209106445313 132.8704223632813 989.2728271484375 132.1160888671875 996.3544921875 132.1161499023438 C 1015.154113769531 132.1162719726563 1036.977783203125 137.4326171875 1040.014038085938 149.823974609375 C 1042.260986328125 158.9940795898438 1033.753051757813 166.6080322265625 1022.536010742188 172.4959716796875 C 1031.06103515625 185.9470825195313 1036 201.8959350585938 1036 218.9999389648438 L 1036 829.9999389648438 C 1036 878.0489501953125 997.0490112304688 916.9999389648438 949 916.9999389648438 L 876 916.9999389648438 C 827.9510498046875 916.9999389648438 789 878.0489501953125 789 829.9999389648438 L 789 218.9999389648438 C 789 200.9839477539063 794.47607421875 184.2459716796875 803.85498046875 170.3619384765625 C 794.302978515625 164.7499389648438 787.591064453125 157.7529296875 789.614990234375 149.490966796875 C 792.6512451171875 137.0989990234375 814.4732666015625 131.7825927734375 833.27294921875 131.7825927734375 Z"/></g></g><g transform="translate(-789.689 -61)"><path class="f" d="M1034.117,75.732c-3-10.875-19.908-6.251-16.893,4.658a28.269,28.269,0,0,1,.755,3.728c-5.628-1.951-8.433-6.745-7.566-13.358.622-4.748-4.455-8.76-8.76-8.76-5.244,0-8.139,4.026-8.759,8.76-1.827,13.936,8,27.616,21.566,30.638a25.258,25.258,0,0,1-2.9,3.858c-5.239,5.725-11.869,7.893-19,8.156-.057-.059-.1-.119-.165-.177a30.752,30.752,0,0,1-8.1-30.926c3.2-10.863-13.708-15.469-16.894-4.657a48.377,48.377,0,0,0,2.848,34.31,37.285,37.285,0,0,0-10.285,1.4c-.019-.022-.035-.045-.055-.067a24.734,24.734,0,0,1-5.86-21.467c.983-4.668-1.307-9.452-6.118-10.775-4.387-1.207-9.791,1.444-10.775,6.118A43.237,43.237,0,0,0,945.75,123.6c-4.573,7.012-5.379,16.112-5.265,24.64.152,11.288,17.671,11.3,17.52,0-.061-4.555-.061-8.912,1.343-13.28,1.2-3.733,5.057-4.838,8.469-5.524,5.154-1.036,11.121.373,16.249,1.034a53.635,53.635,0,0,0,18.624-.575C1026.691,124.658,1040.488,98.787,1034.117,75.732Z"/><path class="f" d="M791.261,74.732c3.005-10.875,19.908-6.251,16.893,4.658a28.279,28.279,0,0,0-.755,3.728c5.628-1.951,8.433-6.745,7.566-13.358-.622-4.748,4.455-8.76,8.76-8.76,5.244,0,8.139,4.026,8.759,8.76,1.827,13.936-8,27.616-21.566,30.638a25.258,25.258,0,0,0,2.9,3.858c5.239,5.725,11.869,7.893,19,8.156.057-.059.1-.119.165-.177a30.752,30.752,0,0,0,8.1-30.926c-3.2-10.863,13.708-15.469,16.894-4.657a48.377,48.377,0,0,1-2.848,34.31,37.285,37.285,0,0,1,10.285,1.4c.019-.022.035-.045.055-.067a24.734,24.734,0,0,0,5.86-21.467c-.983-4.668,1.307-9.452,6.118-10.775,4.387-1.207,9.791,1.444,10.775,6.118a43.237,43.237,0,0,1-8.591,36.428c4.573,7.012,5.379,16.112,5.265,24.64-.152,11.288-17.671,11.3-17.52,0,.061-4.555.061-8.912-1.343-13.28-1.2-3.733-5.057-4.838-8.469-5.524-5.154-1.036-11.121.373-16.249,1.034a53.635,53.635,0,0,1-18.624-.575C798.687,123.658,784.89,97.787,791.261,74.732Z"/></g><path class="g" d="M1016.367,163.95c6.572-2.615,11.272-5.949,10.191-10.362-1.763-7.2-18.4-9.2-31.934-8.673A87.422,87.422,0,0,1,1016.367,163.95Z" transform="translate(-795.429 -55.23)"/><path class="g" d="M1004.97,163.95C998.4,161.335,993.7,158,994.779,153.588c1.763-7.2,18.4-9.2,31.934-8.673A87.422,87.422,0,0,0,1004.97,163.95Z" transform="translate(-966.68 -108.739) rotate(3)"/></svg>