<svg xmlns="http://www.w3.org/2000/svg" width="24.18" height="29.413" viewBox="0 0 24.18 29.413"><path d="M368.24,384.374c.262,4.492,2.691,9.966,6.826,11.738a7.063,7.063,0,0,0,2.774.635A4.152,4.152,0,0,0,380.3,396c1.025.736,2.753,1.175,5.237.11,4.135-1.772,6.564-7.246,6.826-11.738.317-5.437-2.19-7.92-4.349-9.045-2.108-1.1-5.3-.509-6.982-.071,0-.008,0-.015,0-.022s0-.044,0-.066v-.019c0-.031-.005-.062-.007-.093a3.392,3.392,0,0,1,2.79-3.32,1.1,1.1,0,1,0-.581-2.116,6.026,6.026,0,0,0-3.2,1.966,8.226,8.226,0,0,0-9.321-3.974,1.108,1.108,0,0,0-.18.068l-.01,0a1.083,1.083,0,0,0-.173.1l-.009.006a1.1,1.1,0,0,0-.142.129l-.015.014a1.1,1.1,0,0,0-.1.14c-.007.01-.015.02-.022.031a1.055,1.055,0,0,0-.071.147c-.007.015-.015.03-.021.045a1.106,1.106,0,0,0-.043.164c0,.014-.008.028-.01.043a1.078,1.078,0,0,0-.011.191c0,.009,0,.017,0,.026v.023a8.14,8.14,0,0,0,3.421,6.275,4.753,4.753,0,0,0-.74.306C370.43,376.455,367.923,378.937,368.24,384.374Zm3.976-14.812a6.016,6.016,0,0,1,6.28,3.931l-2.716-1.952a.658.658,0,0,0-.769,1.069l2.383,1.713a6.011,6.011,0,0,1-5.179-4.761Zm1.387,7.714c1.681-.876,5.153-.023,6.348.38a1.1,1.1,0,0,0,.7,0c1.113-.376,4.669-1.254,6.348-.38,2.3,1.2,3.372,3.546,3.172,6.971-.217,3.725-2.219,8.443-5.5,9.849-2.485,1.065-3.284-.01-3.4-.2a1.054,1.054,0,0,0-.956-.616,1.116,1.116,0,0,0-1,.627c-.007.014-.757,1.315-3.394.184-3.281-1.406-5.282-6.124-5.5-9.849C370.232,380.822,371.3,378.477,373.6,377.276Z" transform="translate(-368.213 -367.334)"/><path d="M385.681,410.8a.768.768,0,0,0-.524-1.444,6.365,6.365,0,0,0-3.875,6.313.768.768,0,0,0,.767.743h.026a.768.768,0,0,0,.742-.793A4.8,4.8,0,0,1,385.681,410.8Z" transform="translate(-378.004 -398.791)"/></svg>