<svg xmlns="http://www.w3.org/2000/svg" width="25.974" height="25.974" viewBox="0 0 25.974 25.974"><path d="M666.042,794.108a12.987,12.987,0,1,0,12.987,12.987A13,13,0,0,0,666.042,794.108Zm0,24.043A11.056,11.056,0,1,1,677.1,807.095,11.069,11.069,0,0,1,666.042,818.151Z" transform="translate(-653.055 -794.108)"/><rect width="1.379" height="1.931" transform="translate(12.298 3.422)"/><rect width="1.379" height="1.931" transform="translate(12.298 20.621)"/><rect width="1.931" height="1.379" transform="translate(3.422 12.297)"/><rect width="1.931" height="1.379" transform="translate(20.621 12.297)"/><path d="M699.018,819.888h-1.379v6.566h4.68v-1.379h-3.3Z" transform="translate(-685.341 -812.777)"/></svg>