<svg xmlns="http://www.w3.org/2000/svg" width="26.277" height="20.705" viewBox="0 0 26.277 20.705"><defs><style>.a{stroke:#000;stroke-width:0.5px;}</style></defs><g transform="translate(0.25 0.25)"><path class="a" d="M933.931,557.255h-2.162v-1.524a.494.494,0,0,0-.494-.494,22.666,22.666,0,0,0-9.738,1.956,22.669,22.669,0,0,0-9.739-1.956.494.494,0,0,0-.494.494v1.524h-2.162a.494.494,0,0,0-.494.494v17.2a.494.494,0,0,0,.494.494h24.789a.494.494,0,0,0,.494-.494v-17.2A.494.494,0,0,0,933.931,557.255Zm-11.9.8a21.826,21.826,0,0,1,8.75-1.823v16.211a23.293,23.293,0,0,0-8.75,1.724Zm-9.738-1.823a21.935,21.935,0,0,1,8.75,1.824v16.111a23.293,23.293,0,0,0-8.75-1.724Zm-2.656,2.013H911.3v14.688a.494.494,0,0,0,.494.494,24.28,24.28,0,0,1,7.14,1.029h-9.3Zm23.8,16.211h-9.31a24.258,24.258,0,0,1,7.148-1.029.494.494,0,0,0,.494-.494V558.243h1.668Z" transform="translate(-908.648 -555.237)"/><path class="a" d="M991.509,571.83a14.652,14.652,0,0,0-6.7,1.4.494.494,0,1,0,.48.863,13.87,13.87,0,0,1,6.219-1.276.494.494,0,1,0,0-.988Z" transform="translate(-970.521 -568.762)"/><path class="a" d="M991.509,587.88a14.657,14.657,0,0,0-6.7,1.4.494.494,0,1,0,.48.863,13.872,13.872,0,0,1,6.219-1.276.494.494,0,0,0,0-.988Z" transform="translate(-970.521 -581.845)"/><path class="a" d="M991.509,603.931a14.656,14.656,0,0,0-6.7,1.4.494.494,0,1,0,.48.863,13.868,13.868,0,0,1,6.219-1.276.494.494,0,1,0,0-.988Z" transform="translate(-970.521 -594.928)"/><path class="a" d="M988.037,621.756a11.954,11.954,0,0,0-3.226,1.065.494.494,0,0,0,.48.864,11.287,11.287,0,0,1,2.94-.959.494.494,0,0,0-.194-.969Z" transform="translate(-970.523 -609.45)"/><path class="a" d="M939.076,573.231a14.656,14.656,0,0,0-6.7-1.4.494.494,0,1,0,0,.988,13.981,13.981,0,0,1,6.219,1.276.494.494,0,1,0,.481-.863Z" transform="translate(-927.586 -568.762)"/><path class="a" d="M939.076,589.281a14.661,14.661,0,0,0-6.7-1.4.494.494,0,1,0,0,.988,13.986,13.986,0,0,1,6.219,1.276.494.494,0,1,0,.481-.863Z" transform="translate(-927.586 -581.845)"/><path class="a" d="M939.076,605.332a14.66,14.66,0,0,0-6.7-1.4.494.494,0,1,0,0,.988,13.98,13.98,0,0,1,6.219,1.276.494.494,0,0,0,.481-.863Z" transform="translate(-927.586 -594.928)"/><path class="a" d="M935.85,620.317a17.716,17.716,0,0,0-3.474-.336.494.494,0,1,0,0,.988,16.734,16.734,0,0,1,3.28.317.5.5,0,0,0,.1.01.494.494,0,0,0,.1-.979Z" transform="translate(-927.586 -608.011)"/></g></svg>