<svg xmlns="http://www.w3.org/2000/svg" width="29.277" height="20.032" viewBox="0 0 29.277 20.032"><defs><style>.a{stroke:#000;stroke-width:0.5px;}</style></defs><path class="a" d="M1226.394,99.982h-1.466a.012.012,0,0,1-.01-.018,1.911,1.911,0,0,0-.017-2.131l0,0-4.052-5.806a3.388,3.388,0,0,0-2.576-1.471,3.49,3.49,0,0,0-2.21.63l-4.577,3.135a.012.012,0,0,1-.017,0l-2.709-3.954a.013.013,0,0,1,0-.012l2.632-6.426a1.918,1.918,0,0,0-.084-1.679,1.841,1.841,0,0,0-2.13-.844l-5.374,1.623a.012.012,0,0,1-.009,0,3.883,3.883,0,1,0-1.84,7.3,3.827,3.827,0,0,0,.536-.042.012.012,0,0,1,.012.017,3.4,3.4,0,0,0,.279,3.365l4.163,6.078a1.907,1.907,0,0,0,.2.241l-5.949.013c-.21-.013-.5.185-.471.4a.426.426,0,0,0,.308.4c.009,0,22.289.018,22.289.018h3.1a.42.42,0,0,0,.416-.481A.443.443,0,0,0,1226.394,99.982Zm-24.44-10.5a3.043,3.043,0,1,1,.475-6.046l-.286.086a1.894,1.894,0,0,0-1.343,2.159,1.843,1.843,0,0,0,2.338,1.39l1.855-.56a3.032,3.032,0,0,1-1,2.183l-.321.22c-.089.061-.174.126-.255.194A3.026,3.026,0,0,1,1201.953,89.484Zm8.021,10.5,7.963-5.455,3.806,5.455Zm13.956-.187a1.064,1.064,0,0,1-.59.187h0a1.071,1.071,0,0,1-.9-.468l-4.053-5.809a.42.42,0,0,0-.582-.106l-8.679,5.946a1.071,1.071,0,0,1-1.489-.278l-4.164-6.078a2.572,2.572,0,0,1,.44-3.4,3.892,3.892,0,0,0,.59-.425l2.006-1.374a.419.419,0,0,0,.235-.232l.9-2.207a.42.42,0,0,0-.51-.561l-4.245,1.282a1,1,0,0,1-1.272-.758,1.05,1.05,0,0,1,.763-1.183l7.034-2.124a1,1,0,0,1,1.161.461,1.076,1.076,0,0,1,.033.939l-2.721,6.641a.42.42,0,0,0,.042.4l3.085,4.5a.42.42,0,0,0,.584.109l4.994-3.421a2.559,2.559,0,0,1,3.56.668l4.052,5.808A1.071,1.071,0,0,1,1223.931,99.795Zm-18.1-13.535.707-.213-.514,1.256-.347.238a3.862,3.862,0,0,0,.161-1.1C1205.837,86.38,1205.834,86.32,1205.831,86.26Z" transform="translate(-1197.82 -81.041)"/></svg>