<svg xmlns="http://www.w3.org/2000/svg" xmlns:xlink="http://www.w3.org/1999/xlink" width="247.267" height="98.146" viewBox="0 0 247.267 98.146"><defs><style>.a{fill:none;}.b{isolation:isolate;clip-path:url(#a);}.c{fill:#b4906e;}.d{fill:#7d5c3e;}.e,.f{stroke:none;}.f{fill:#9e744c;}</style><clipPath id="a"><rect class="a" width="247.267" height="72.403"/></clipPath></defs><g class="b" transform="translate(0 25.744)"><g class="c" transform="translate(-788.733 -112.597)"><path class="e" d="M 949.0000610351563 913.0000610351563 L 876.0000610351563 913.0000610351563 C 870.3659057617188 913.0000610351563 864.736572265625 912.4327392578125 859.2683715820313 911.313720703125 C 853.9410400390625 910.2236328125 848.7010498046875 908.5970458984375 843.69384765625 906.4791870117188 C 838.776611328125 904.3994140625 834.0336303710938 901.824951171875 829.5966186523438 898.827392578125 C 825.2008056640625 895.8576049804688 821.0670166015625 892.4469604492188 817.31005859375 888.6900634765625 C 813.5531616210938 884.9330444335938 810.1425170898438 880.7992553710938 807.1727294921875 876.4035034179688 C 804.1751708984375 871.9664916992188 801.6007080078125 867.2235107421875 799.5209350585938 862.3062744140625 C 797.4030151367188 857.299072265625 795.7764892578125 852.05908203125 794.6864013671875 846.7317504882813 C 793.5673828125 841.2634887695313 793.0000610351563 835.6341552734375 793.0000610351563 830.0000610351563 L 793.0000610351563 219.0000610351563 C 793.0000610351563 209.8845062255859 794.467041015625 200.9272918701172 797.3604736328125 192.3773956298828 C 800.1580200195313 184.1105041503906 804.2384033203125 176.3595123291016 809.48828125 169.3396148681641 L 812.0803833007813 165.8735046386719 L 808.4210205078125 163.5621795654297 C 805.459716796875 161.6917266845703 802.8492431640625 159.5307312011719 800.6622924804688 157.139404296875 C 798.4139404296875 154.6809539794922 796.6609497070313 152.0272827148438 795.4521484375 149.2518463134766 C 793.381591796875 144.4958343505859 792.443603515625 138.6225128173828 792.8114013671875 132.7142791748047 C 793.1359252929688 127.4990615844727 794.480712890625 122.6291732788086 796.4085083007813 119.6872863769531 C 797.4705810546875 118.0663986206055 798.4141845703125 117.4912872314453 798.8993530273438 117.4912872314453 C 799.361572265625 117.4912872314453 800.2559204101563 117.9450607299805 801.3798217773438 119.218620300293 C 805.1471557617188 123.4872817993164 812.3798217773438 127.5288391113281 823.4911499023438 131.5744018554688 C 830.8681640625 134.2602844238281 839.8947143554688 136.9127349853516 850.3202514648438 139.4579467773438 L 851.3689575195313 139.7139587402344 L 852.4039306640625 139.4076232910156 C 860.0450439453125 137.1465148925781 867.9839477539063 136.0000610351563 876.0000610351563 136.0000610351563 L 949.0000610351563 136.0000610351563 C 956.3739624023438 136.0000610351563 963.70068359375 136.9731750488281 970.7767944335938 138.8925018310547 L 971.7637329101563 139.1601715087891 L 972.7579345703125 138.9214019775391 C 983.386962890625 136.3688354492188 992.6104736328125 133.7041778564453 1000.172607421875 131.0015106201172 C 1011.783630371094 126.8518447875977 1019.307067871094 122.7052841186523 1023.173034667969 118.324951171875 C 1024.297119140625 117.0510635375977 1025.191528320313 116.597282409668 1025.653686523438 116.597282409668 C 1026.138549804688 116.597282409668 1027.081787109375 117.1723937988281 1028.143676757813 118.7929534912109 C 1030.071655273438 121.7349548339844 1031.416381835938 126.6050643920898 1031.7412109375 131.8205108642578 C 1032.109008789063 137.7289581298828 1031.171142578125 143.6021728515625 1029.100463867188 148.3582916259766 C 1027.8828125 151.1552886962891 1026.111206054688 153.8283996582031 1023.835021972656 156.3037261962891 C 1021.622497558594 158.7097320556641 1018.98046875 160.8813934326172 1015.982238769531 162.7586212158203 L 1012.25634765625 165.0914001464844 L 1014.929382324219 168.5812835693359 C 1020.358276367188 175.6688385009766 1024.580688476563 183.5206146240234 1027.479736328125 191.9185028076172 C 1030.479125976563 200.6075134277344 1032 209.7190704345703 1032 219.0000610351563 L 1032 830.0000610351563 C 1032 835.6341552734375 1031.432739257813 841.2634887695313 1030.313720703125 846.7317504882813 C 1029.2236328125 852.05908203125 1027.597045898438 857.299072265625 1025.479125976563 862.3062744140625 C 1023.399353027344 867.2235107421875 1020.824951171875 871.9664916992188 1017.827392578125 876.4035034179688 C 1014.857604980469 880.7992553710938 1011.446960449219 884.9330444335938 1007.690063476563 888.6900634765625 C 1003.933044433594 892.4469604492188 999.7992553710938 895.8576049804688 995.4035034179688 898.827392578125 C 990.9664916992188 901.824951171875 986.2235107421875 904.3994140625 981.3062744140625 906.4791870117188 C 976.299072265625 908.5970458984375 971.0590209960938 910.2236328125 965.731689453125 911.313720703125 C 960.2634887695313 912.4327392578125 954.6341552734375 913.0000610351563 949.0000610351563 913.0000610351563 Z"/><path class="f" d="M 1025.378173828125 121.8472290039063 C 1022.022033691406 125.3960571289063 1012.207580566406 133.5612182617188 973.6920776367188 142.8107299804688 L 971.7035522460938 143.2882690429688 L 969.7297973632813 142.7529296875 C 962.994873046875 140.9261474609375 956.0203247070313 139.9999389648438 949 139.9999389648438 L 876 139.9999389648438 C 868.3683471679688 139.9999389648438 860.8113403320313 141.091064453125 853.5390014648438 143.2431640625 L 851.4688720703125 143.855712890625 L 849.3716430664063 143.34375 C 813.6079711914063 134.6127319335938 803.303466796875 126.8837280273438 799.16259765625 122.761962890625 C 796.8524169921875 127.2400512695313 795.123046875 138.47509765625 799.119384765625 147.6544799804688 C 801.17333984375 152.3704223632813 805.2353515625 156.8187255859375 810.5571899414063 160.18017578125 L 817.8758544921875 164.802978515625 L 812.6915283203125 171.7351684570313 C 802.4260864257813 185.4617309570313 797 201.8056030273438 797 218.9999389648438 L 797 829.9999389648438 C 797 873.5607299804688 832.439208984375 908.9999389648438 876 908.9999389648438 L 949 908.9999389648438 C 992.560791015625 908.9999389648438 1028 873.5607299804688 1028 829.9999389648438 L 1028 218.9999389648438 C 1028 201.4828491210938 1022.382202148438 184.889404296875 1011.753967285156 171.0134887695313 L 1006.407897949219 164.033935546875 L 1013.859680175781 159.3682861328125 C 1019.25390625 155.990966796875 1023.364013671875 151.5138549804688 1025.432983398438 146.7614135742188 C 1029.436279296875 137.5664672851563 1027.694458007813 126.310791015625 1025.378173828125 121.8472290039063 M 1025.653686523438 112.5972290039063 C 1033.98388671875 112.5994262695313 1039.591552734375 134.282470703125 1032.767822265625 149.9549560546875 C 1029.89501953125 156.553955078125 1024.55908203125 162.1080932617188 1018.10498046875 166.14892578125 C 1029.326904296875 180.7999267578125 1036 199.1189575195313 1036 218.9999389648438 L 1036 829.9999389648438 C 1036 878.0489501953125 997.0490112304688 916.9999389648438 949 916.9999389648438 L 876 916.9999389648438 C 827.9509887695313 916.9999389648438 789 878.0489501953125 789 829.9999389648438 L 789 218.9999389648438 C 789 199.4789428710938 795.428955078125 181.4600830078125 806.2849731445313 166.9439697265625 C 799.903076171875 162.9129638671875 794.635009765625 157.3929443359375 791.784912109375 150.8489379882813 C 784.9610595703125 135.1753540039063 790.568115234375 113.4912109375 798.8992919921875 113.4912109375 C 800.6365966796875 113.4912109375 802.492919921875 114.4346313476563 804.3789672851563 116.5719604492188 C 811.781005859375 124.9589233398438 835.9619750976563 131.8350830078125 851.2689819335938 135.5719604492188 C 859.1090087890625 133.251953125 867.4080200195313 131.9999389648438 876 131.9999389648438 L 949 131.9999389648438 C 956.8989868164063 131.9999389648438 964.5499877929688 133.0589599609375 971.823974609375 135.031982421875 C 987.0059814453125 131.3859252929688 1012.531982421875 124.3369750976563 1020.174011230469 115.677978515625 C 1022.060791015625 113.5398559570313 1023.915832519531 112.5967407226563 1025.653686523438 112.5972290039063 Z"/></g></g><g transform="translate(-787.699 -81.861)"><path class="d" d="M873.921,139.327s-4.559-34.885-16-53.947-22.362,44.794-17,60.331S873.921,139.327,873.921,139.327Z"/><path class="d" d="M949.011,139.355s4.558-34.884,16-53.947,22.362,44.794,17,60.331S949.011,139.355,949.011,139.355Z"/></g></svg>