<svg xmlns="http://www.w3.org/2000/svg" xmlns:xlink="http://www.w3.org/1999/xlink" width="247.017" height="884.072" viewBox="0 0 247.017 884.072"><defs><style>.a{fill:none;}.b,.d{isolation:isolate;}.b{clip-path:url(#a);}.c,.e{fill:#dbb779;}.c{stroke:#bb924b;stroke-width:8px;}.d{clip-path:url(#b);}.f{fill:#ffeed1;}.g,.h{stroke:none;}.h{fill:#bb924b;}</style><clipPath id="a"><rect class="a" y="48" width="247" height="737"/></clipPath><clipPath id="b"><rect class="a" width="247" height="151.866"/></clipPath></defs><g class="b" transform="translate(0 99.072)"><g class="c"><rect class="g" width="247" height="785" rx="87"/><rect class="a" x="4" y="4" width="239" height="777" rx="83"/></g></g><g transform="translate(0.017)"><g class="d"><g class="e" transform="translate(-789 -33.134)"><path class="g" d="M 949 912.9999389648438 L 876 912.9999389648438 C 870.3659057617188 912.9999389648438 864.736572265625 912.4325561523438 859.2682495117188 911.3135986328125 C 853.9410400390625 910.2235107421875 848.7010498046875 908.5970458984375 843.6937866210938 906.4791259765625 C 838.7764892578125 904.3992919921875 834.0335083007813 901.8248901367188 829.5966186523438 898.8272705078125 C 825.20068359375 895.8574829101563 821.0669555664063 892.44677734375 817.3099975585938 888.68994140625 C 813.5531616210938 884.9330444335938 810.1424560546875 880.7992553710938 807.1727294921875 876.4033813476563 C 804.175048828125 871.9664306640625 801.6007080078125 867.2235107421875 799.5208129882813 862.3062133789063 C 797.4029541015625 857.2988891601563 795.7764892578125 852.0588989257813 794.6863403320313 846.7317504882813 C 793.5674438476563 841.2633666992188 793 835.6340942382813 793 829.9999389648438 L 793 218.9999694824219 C 793 212.1017303466797 793.84765625 205.2460784912109 795.519287109375 198.6236114501953 C 797.1420288085938 192.1952667236328 799.5460205078125 185.9622039794922 802.6644897460938 180.0976104736328 C 805.7294311523438 174.3338470458984 809.4840087890625 168.9250335693359 813.823974609375 164.0213775634766 C 818.1480102539063 159.1358489990234 823.0452880859375 154.7602081298828 828.3798828125 151.0160827636719 L 830.9638671875 149.2024383544922 L 829.8004760742188 146.2677307128906 C 822.0272827148438 126.661376953125 815.8140258789063 104.8723220825195 812.7537841796875 86.48749542236328 C 811.0317993164063 76.14220428466797 810.333984375 67.11244201660156 810.6798706054688 59.64902496337891 C 810.8603515625 55.75490951538086 811.3301391601563 52.2910270690918 812.0763549804688 49.35349655151367 C 812.8165893554688 46.43914413452148 813.8349609375 44.01467514038086 815.1032104492188 42.14761352539063 C 816.2290649414063 40.49020385742188 817.5242309570313 39.28620147705078 819.0628051757813 38.4666748046875 C 820.668701171875 37.61137771606445 822.5921020507813 37.17773056030273 824.779296875 37.17773056030273 C 826.707275390625 37.17773056030273 828.8807373046875 37.51102828979492 831.2391967773438 38.1682014465332 C 834.7828369140625 39.15584945678711 838.1449584960938 40.74043655395508 841.2321166992188 42.87784957885742 C 844.194580078125 44.92890930175781 846.9932861328125 47.54949569702148 849.5508422851563 50.66679000854492 C 854.3450927734375 56.51079177856445 858.4531860351563 64.28031921386719 861.7611694335938 73.75984954833984 C 864.6661376953125 82.08432006835938 866.9896240234375 91.82855224609375 868.6670532226563 102.7220840454102 C 870.0618896484375 111.7796173095703 871.0215454101563 121.6959686279297 871.51953125 132.1954956054688 L 871.7012939453125 136.0281982421875 L 875.538330078125 136.0058441162109 C 875.626220703125 136.0053863525391 875.7139892578125 136.0039672851563 875.8017578125 136.00244140625 C 875.8677978515625 136.0012664794922 875.9337768554688 135.9999694824219 876 135.9999694824219 L 949 135.9999694824219 C 950.1724853515625 135.9999694824219 951.3863525390625 136.0284423828125 952.7110595703125 136.0871429443359 L 956.6959838867188 136.2635040283203 L 956.883544921875 132.2790222167969 C 957.3781127929688 121.772087097168 958.3345947265625 111.8474960327148 959.7265625 102.7810287475586 C 961.4014282226563 91.8724365234375 963.7230834960938 82.11408233642578 966.6273193359375 73.77714538574219 C 969.9351806640625 64.28090667724609 974.0447998046875 56.49773406982422 978.8419799804688 50.64373397827148 C 981.4013061523438 47.52055740356445 984.2023315429688 44.89537811279297 987.1675415039063 42.84090805053711 C 990.2575073242188 40.69984817504883 993.6231689453125 39.11290740966797 997.1708374023438 38.12420272827148 C 999.529296875 37.4669075012207 1001.702819824219 37.13361358642578 1003.630798339844 37.13361358642578 C 1005.857177734375 37.13361358642578 1007.732849121094 37.55867385864258 1009.365173339844 38.43326187133789 C 1010.908386230469 39.25996780395508 1012.206481933594 40.47502517700195 1013.333679199219 42.14785003662109 C 1014.620239257813 44.05702590942383 1015.647277832031 46.54220199584961 1016.386352539063 49.53420257568359 C 1017.130493164063 52.54679107666016 1017.588500976563 56.10102462768555 1017.747680664063 60.09820175170898 C 1018.052368164063 67.74691009521484 1017.283081054688 76.99279022216797 1015.46142578125 87.57937622070313 C 1013.791442871094 97.28372955322266 1011.305541992188 107.7567901611328 1008.072570800781 118.7076110839844 C 1005.098937988281 128.7797393798828 1001.558715820313 138.9629058837891 997.8345947265625 148.1563262939453 L 996.6851806640625 150.9936218261719 L 999.1239013671875 152.8444366455078 C 1004.108703613281 156.6275024414063 1008.673034667969 160.9802093505859 1012.690124511719 165.781494140625 C 1016.72802734375 170.6076202392578 1020.215270996094 175.8901977539063 1023.055053710938 181.482666015625 C 1025.945678710938 187.1749114990234 1028.171997070313 193.2026672363281 1029.672241210938 199.3985595703125 C 1031.216796875 205.7771453857422 1032 212.3720855712891 1032 218.9999694824219 L 1032 829.9999389648438 C 1032 835.6340942382813 1031.4326171875 841.2633666992188 1030.313598632813 846.7317504882813 C 1029.223510742188 852.0588989257813 1027.597045898438 857.2988891601563 1025.479125976563 862.3062133789063 C 1023.399291992188 867.2235107421875 1020.824951171875 871.9664306640625 1017.827270507813 876.4033813476563 C 1014.857543945313 880.7992553710938 1011.446838378906 884.9330444335938 1007.690002441406 888.68994140625 C 1003.933044433594 892.44677734375 999.79931640625 895.8574829101563 995.4034423828125 898.8272705078125 C 990.9664916992188 901.8248901367188 986.2235107421875 904.3992919921875 981.3062133789063 906.4791259765625 C 976.2989501953125 908.5970458984375 971.0589599609375 910.2235107421875 965.7317504882813 911.3135986328125 C 960.263427734375 912.4325561523438 954.6340942382813 912.9999389648438 949 912.9999389648438 Z"/><path class="h" d="M 1003.627136230469 41.13360595703125 C 1002.064147949219 41.1336669921875 1000.253295898438 41.41754150390625 998.2446899414063 41.97723388671875 C 969.0563354492188 50.1123046875 962.305419921875 102.1638793945313 960.8792114257813 132.4671630859375 L 960.504150390625 140.4359741210938 L 952.5342407226563 140.0831298828125 C 951.3624877929688 140.0313720703125 950.1843872070313 139.9999389648438 949 139.9999389648438 L 875.5615234375 140.005859375 L 867.8876342773438 140.0504150390625 L 867.5239868164063 132.385009765625 C 866.0889282226563 102.125732421875 859.3269653320313 50.1492919921875 830.16552734375 42.0213623046875 C 828.156494140625 41.46160888671875 826.3443603515625 41.177734375 824.779296875 41.177734375 C 821.80908203125 41.177734375 819.96435546875 42.10986328125 818.4119873046875 44.3951416015625 C 809.6671752929688 57.269287109375 816.3028564453125 101.3695068359375 833.518798828125 144.7935180664063 L 835.8458862304688 150.6629028320313 L 830.6778564453125 154.2901000976563 C 809.5899047851563 169.0908813476563 797 193.281494140625 797 218.9999389648438 L 797 830 C 797 873.5606689453125 832.4392700195313 908.9999389648438 876 908.9999389648438 L 949 908.9999389648438 C 992.5607299804688 908.9999389648438 1028 873.5606689453125 1028 830 L 1028 218.9999389648438 C 1028 194.0755004882813 1016.593627929688 171.1239624023438 996.7056274414063 156.0305786132813 L 991.8284912109375 152.3291625976563 L 994.1273193359375 146.654296875 C 1009.439086914063 108.85595703125 1019.867309570313 59.00830078125 1010.015563964844 44.3858642578125 C 1008.459655761719 42.07635498046875 1006.608825683594 41.13409423828125 1003.627136230469 41.13360595703125 M 1003.630859375 33.13360595703125 C 1035.3134765625 33.13800048828125 1019.615112304688 105.0430297851563 1001.5419921875 149.657958984375 C 1022.476928710938 165.5459594726563 1036 190.6919555664063 1036 218.9999389648438 L 1036 830 C 1036 878.0490112304688 997.049072265625 916.9999389648438 949 916.9999389648438 L 876 916.9999389648438 C 827.950927734375 916.9999389648438 789 878.0490112304688 789 830 L 789 218.9999389648438 C 789 189.5259399414063 803.6600341796875 163.47900390625 826.08203125 147.741943359375 C 808.3479614257813 103.01123046875 793.5487060546875 33.177734375 824.779296875 33.177734375 C 827.0423583984375 33.177734375 829.5501708984375 33.54510498046875 832.3129272460938 34.31500244140625 C 865.0989379882813 43.4530029296875 873.7260131835938 94.2850341796875 875.5150756835938 132.0059814453125 C 875.6769409179688 132.0050048828125 875.8380126953125 131.9999389648438 876 131.9999389648438 L 949 131.9999389648438 C 950.3029174804688 131.9999389648438 951.5989379882813 132.0339965820313 952.8880004882813 132.0910034179688 C 954.6640014648438 94.3570556640625 963.2739868164063 43.41900634765625 996.096923828125 34.27099609375 C 998.8622436523438 33.5003662109375 1001.366149902344 33.13330078125 1003.630859375 33.13360595703125 Z"/></g></g><path class="f" d="M1036.283,142.433c10.569-27.2,22.835-71.821,11.4-76.672-9.7-4.158-24.187,35.538-29.69,69.691A58.17,58.17,0,0,1,1036.283,142.433Z" transform="translate(-838.992 -31.826)"/><path class="f" d="M1033.982,142.433c-10.569-27.2-22.835-71.821-11.4-76.672,9.7-4.158,24.187,35.538,29.69,69.691A58.17,58.17,0,0,0,1033.982,142.433Z" transform="translate(-982.992 -32.826)"/></g></svg>